<?xml version="1.0" encoding="utf-8"?>
<!-- Generator: Adobe Illustrator 16.0.2, SVG Export Plug-In . SVG Version: 6.00 Build 0)  -->
<!DOCTYPE svg PUBLIC "-//W3C//DTD SVG 1.1//EN" "http://www.w3.org/Graphics/SVG/1.1/DTD/svg11.dtd">
<svg version="1.1" xmlns="http://www.w3.org/2000/svg" xmlns:xlink="http://www.w3.org/1999/xlink" x="0px" y="0px" width="500px"
	 height="500px" viewBox="0 0 500 500" enable-background="new 0 0 500 500" xml:space="preserve">
<g id="Layer_3" display="none">
</g>
<g id="Layer_5">
	<g>
		<circle fill="#F36D47" cx="124" cy="247.5" r="48"/>
		<g>
			<polygon fill="#F9A472" points="124,207.34 128.711,210.727 134.117,208.617 137.837,213.071 143.598,212.371 146.094,217.609 
				151.848,218.365 152.963,224.06 158.348,226.223 158.011,232.016 162.689,235.449 160.923,240.977 164.601,245.466 
				161.514,250.381 163.96,255.643 159.749,259.636 160.809,265.341 155.737,268.16 155.345,273.95 149.731,275.421 
				147.912,280.931 142.108,280.959 138.976,285.844 133.348,284.428 129.099,288.379 124,285.607 118.901,288.379 114.652,284.428 
				109.024,285.844 105.892,280.959 100.088,280.931 98.269,275.421 92.655,273.95 92.263,268.16 87.191,265.341 88.251,259.636 
				84.04,255.643 86.486,250.381 83.399,245.466 87.077,240.977 85.311,235.449 89.989,232.016 89.652,226.223 95.037,224.06 
				96.152,218.365 101.906,217.609 104.402,212.371 110.163,213.071 113.883,208.617 119.289,210.727 			"/>
			<g>
				<path fill="#F9A472" d="M122.738,209.499c1.564,1.125,3.425,3.121,5.308,3.639c1.983,0.545,4.949-1.413,6.735-2.109
					c-0.811-0.214-1.622-0.429-2.432-0.643c1.24,1.485,2.537,3.855,4.227,4.845c1.767,1.035,5.13-0.129,7.022-0.359
					c-0.72-0.413-1.439-0.826-2.159-1.238c0.828,1.738,1.628,5.102,3.393,6.135c1.797,1.053,4.997,0.832,7.015,1.097
					c-0.804-0.612-1.607-1.224-2.411-1.835c0.371,1.893,0.311,5.351,1.758,6.797c1.472,1.473,4.602,2.048,6.488,2.806
					c-0.612-0.804-1.224-1.607-1.835-2.411c-0.112,1.93-1.032,5.286,0.005,7.055c1.052,1.796,3.939,3.129,5.575,4.331
					c-0.383-0.941-0.766-1.882-1.149-2.823c-0.592,1.852-2.313,4.872-1.767,6.856c0.551,2.002,3.039,4.028,4.321,5.592
					c-0.13-1.01-0.261-2.02-0.391-3.029c-1.036,1.65-3.428,4.121-3.428,6.177c0,2.076,1.938,4.695,2.787,6.523
					c0.13-1.01,0.261-2.02,0.391-3.029c-1.416,1.342-4.31,3.119-4.854,5.096c-0.55,2.001,0.693,5.061,1.06,7.035
					c0.383-0.941,0.766-1.883,1.149-2.824c-1.71,0.951-4.931,1.945-5.969,3.717c-1.045,1.784-0.599,5.059-0.733,7.052
					c0.612-0.804,1.224-1.607,1.835-2.411c-1.896,0.497-5.264,0.661-6.717,2.114c-1.461,1.461-1.837,4.72-2.462,6.612
					c0.804-0.611,1.607-1.224,2.411-1.835c-1.963,0.01-5.29-0.67-7.065,0.37c-1.782,1.043-2.955,4.104-4.03,5.781
					c0.941-0.383,1.882-0.766,2.823-1.149c-1.915-0.481-4.966-1.963-6.957-1.416c-1.988,0.547-3.899,3.243-5.352,4.595
					c1.01-0.131,2.02-0.261,3.029-0.391c-1.74-0.946-4.296-3.113-6.36-3.113s-4.621,2.167-6.36,3.113
					c1.01,0.13,2.02,0.26,3.029,0.391c-1.453-1.352-3.364-4.048-5.352-4.595c-1.991-0.547-5.043,0.935-6.957,1.416
					c0.941,0.384,1.882,0.767,2.823,1.149c-1.075-1.677-2.248-4.738-4.03-5.781c-1.775-1.04-5.102-0.36-7.065-0.37
					c0.804,0.611,1.607,1.224,2.411,1.835c-0.625-1.893-1.002-5.151-2.463-6.612c-1.452-1.453-4.821-1.617-6.716-2.114
					c0.612,0.804,1.224,1.607,1.835,2.411c-0.135-1.993,0.312-5.268-0.733-7.052c-1.038-1.771-4.259-2.766-5.969-3.717
					c0.383,0.941,0.766,1.883,1.149,2.824c0.367-1.975,1.61-5.034,1.06-7.035c-0.544-1.977-3.438-3.754-4.854-5.096
					c0.13,1.01,0.261,2.02,0.391,3.029c0.85-1.828,2.787-4.447,2.787-6.523c0-2.056-2.392-4.527-3.428-6.177
					c-0.13,1.01-0.261,2.02-0.391,3.029c1.282-1.564,3.77-3.59,4.321-5.592c0.546-1.985-1.175-5.005-1.767-6.856
					c-0.383,0.941-0.766,1.882-1.149,2.823c1.636-1.201,4.523-2.535,5.575-4.331c1.037-1.769,0.117-5.125,0.005-7.055
					c-0.612,0.804-1.224,1.607-1.835,2.411c1.886-0.758,5.016-1.333,6.488-2.806c1.447-1.447,1.388-4.905,1.758-6.797
					c-0.804,0.612-1.607,1.224-2.411,1.835c2.019-0.265,5.218-0.044,7.015-1.097c1.765-1.034,2.565-4.397,3.393-6.135
					c-0.72,0.413-1.439,0.826-2.159,1.238c1.89,0.229,4.56,1.124,6.425,0.611c1.971-0.542,3.593-3.624,4.824-5.097
					c-0.811,0.214-1.622,0.429-2.432,0.643c1.789,0.698,4.122,2.199,6.07,2.199c2.052,0,4.414-2.607,5.973-3.728
					c2.592-1.864,0.1-6.204-2.523-4.317c-1.517,1.09-3.033,2.18-4.549,3.271c1.724,0.031,2.084-0.103,1.083-0.402
					c-0.524-0.205-1.048-0.409-1.572-0.614c-1.05-0.41-2.101-0.82-3.151-1.229c-0.753-0.294-1.917,0.026-2.432,0.643
					c-1.198,1.434-2.396,2.867-3.593,4.301c1.643-0.408,1.948-0.631,0.913-0.668c-0.559-0.068-1.117-0.136-1.675-0.204
					c-1.12-0.136-2.239-0.272-3.358-0.408c-0.792-0.096-1.822,0.532-2.159,1.238c-0.832,1.746-1.664,3.492-2.496,5.238
					c0.72-0.413,1.439-0.826,2.159-1.238c-1.918,0.252-3.835,0.504-5.753,0.756c-1.055,0.139-2.179,0.654-2.411,1.835
					c-0.372,1.898-0.744,3.796-1.115,5.694c0.582-0.582,1.164-1.164,1.746-1.746c-1.795,0.721-3.59,1.442-5.385,2.163
					c-1.001,0.402-1.905,1.217-1.835,2.411c0.112,1.931,0.224,3.862,0.336,5.793c0.413-0.72,0.826-1.439,1.238-2.159
					c-1.56,1.145-3.119,2.289-4.678,3.434c-0.887,0.651-1.515,1.679-1.149,2.823c0.589,1.842,1.178,3.685,1.767,5.527
					c0.214-0.811,0.429-1.622,0.643-2.432c-1.226,1.496-2.452,2.993-3.678,4.489c-0.704,0.858-1.03,2.012-0.391,3.029
					c1.029,1.639,2.058,3.277,3.086,4.915c0-0.841,0-1.682,0-2.523c-0.815,1.754-1.63,3.508-2.446,5.262
					c-0.47,1.011-0.478,2.206,0.391,3.029c1.403,1.331,2.807,2.662,4.211,3.993c-0.214-0.811-0.429-1.621-0.643-2.433
					c-0.353,1.902-0.707,3.804-1.06,5.705c-0.204,1.097,0.111,2.247,1.149,2.824c1.69,0.939,3.381,1.879,5.072,2.818
					c-0.413-0.719-0.826-1.438-1.238-2.158c0.131,1.93,0.261,3.86,0.392,5.79c0.075,1.109,0.707,2.115,1.835,2.411
					c1.871,0.49,3.742,0.98,5.613,1.471c-0.582-0.582-1.164-1.164-1.746-1.746c0.606,1.836,1.213,3.673,1.82,5.51
					c0.353,1.067,1.255,1.829,2.411,1.835c1.935,0.01,3.869,0.019,5.803,0.028c-0.72-0.413-1.439-0.825-2.159-1.238
					c1.044,1.628,2.088,3.257,3.133,4.885c0.619,0.965,1.698,1.433,2.823,1.149c1.876-0.473,3.752-0.944,5.628-1.416
					c-0.811-0.215-1.622-0.429-2.432-0.644c1.416,1.317,2.833,2.635,4.249,3.951c0.846,0.787,2.01,0.945,3.029,0.391
					c1.7-0.924,3.399-1.848,5.099-2.771c-0.841,0-1.682,0-2.523,0c1.699,0.924,3.399,1.848,5.099,2.771
					c1.02,0.555,2.183,0.396,3.029-0.391c1.417-1.316,2.833-2.634,4.249-3.951c-0.811,0.215-1.622,0.429-2.432,0.644
					c1.876,0.472,3.752,0.943,5.628,1.416c1.125,0.283,2.205-0.185,2.823-1.149c1.044-1.628,2.088-3.257,3.133-4.885
					c-0.72,0.413-1.439,0.825-2.159,1.238c1.935-0.01,3.869-0.019,5.803-0.028c1.156-0.006,2.058-0.768,2.411-1.835
					c0.606-1.837,1.213-3.674,1.819-5.51c-0.582,0.582-1.164,1.164-1.746,1.746c1.871-0.49,3.743-0.98,5.614-1.471
					c1.129-0.296,1.76-1.302,1.835-2.411c0.131-1.93,0.261-3.86,0.392-5.79c-0.413,0.72-0.826,1.439-1.238,2.158
					c1.691-0.939,3.381-1.879,5.072-2.818c1.038-0.577,1.353-1.728,1.149-2.824c-0.353-1.901-0.707-3.803-1.06-5.705
					c-0.214,0.812-0.429,1.622-0.643,2.433c1.404-1.331,2.808-2.662,4.211-3.993c0.869-0.823,0.861-2.019,0.391-3.029
					c-0.815-1.754-1.63-3.508-2.446-5.262c0,0.841,0,1.682,0,2.523c1.029-1.638,2.058-3.276,3.086-4.915
					c0.639-1.018,0.313-2.171-0.391-3.029c-1.226-1.497-2.452-2.993-3.678-4.489c0.214,0.811,0.429,1.622,0.643,2.432
					c0.589-1.842,1.178-3.685,1.767-5.527c0.366-1.145-0.262-2.172-1.149-2.823c-1.56-1.145-3.119-2.289-4.678-3.434
					c0.413,0.72,0.826,1.439,1.238,2.159c0.112-1.931,0.224-3.862,0.336-5.793c0.069-1.193-0.834-2.009-1.835-2.411
					c-1.795-0.721-3.59-1.442-5.385-2.163c0.582,0.582,1.164,1.164,1.746,1.746c-0.372-1.898-0.744-3.796-1.115-5.694
					c-0.231-1.182-1.356-1.697-2.411-1.835c-1.918-0.252-3.835-0.504-5.753-0.756c0.72,0.413,1.439,0.826,2.159,1.238
					c-0.832-1.746-1.664-3.492-2.496-5.238c-0.337-0.707-1.367-1.334-2.159-1.238c-1.854,0.226-3.709,0.451-5.563,0.676
					c1.46,0.871,1.827,0.936,1.101,0.194c-0.361-0.432-0.722-0.863-1.082-1.295c-0.723-0.866-1.446-1.731-2.169-2.597
					c-0.515-0.617-1.679-0.937-2.432-0.643c-1.74,0.679-3.48,1.358-5.22,2.037c1.66,0.472,2.042,0.438,1.146-0.103
					c-0.457-0.329-0.914-0.657-1.37-0.985c-0.916-0.658-1.831-1.316-2.747-1.975C122.638,203.295,120.146,207.635,122.738,209.499z"
					/>
			</g>
		</g>
		<path fill="#F5875E" d="M139.769,230.25c-3.269,10.75-7.011,19.5-15.659,19.5s-10.61-8.75-15.659-19.5
			c-4.579-9.748,7.011-19.5,15.659-19.5S142.902,219.946,139.769,230.25z"/>
		<path fill="#F5875E" d="M105.349,233.212c10.588,3.759,19.158,7.898,18.761,16.538c-0.397,8.639-9.228,10.197-20.198,14.747
			c-9.948,4.127-19.158-7.897-18.761-16.537S95.2,229.609,105.349,233.212z"/>
		<path fill="#F5875E" d="M107.852,268.754c3.601-10.643,7.613-19.272,16.258-19.004c8.644,0.269,10.333,9.075,15.045,19.977
			c4.274,9.886-7.612,19.273-16.257,19.005S104.401,278.955,107.852,268.754z"/>
		<path fill="#F5875E" d="M143.931,265.001c-10.815-3.044-19.641-6.604-19.821-15.25s8.527-10.79,19.169-16.062
			c9.651-4.78,19.643,6.604,19.822,15.25C163.282,257.586,154.297,267.919,143.931,265.001z"/>
	</g>
	<g>
		<circle fill="#F36D47" cx="254" cy="192" r="48"/>
		<g>
			<polygon fill="#F9A472" points="254,151.84 258.711,155.227 264.117,153.117 267.838,157.571 273.598,156.871 276.094,162.109 
				281.848,162.865 282.963,168.56 288.348,170.723 288.012,176.516 292.689,179.949 290.923,185.477 294.601,189.966 
				291.514,194.881 293.96,200.143 289.749,204.136 290.809,209.841 285.736,212.66 285.345,218.45 279.73,219.921 277.912,225.431 
				272.108,225.459 268.976,230.344 263.348,228.928 259.099,232.879 254,230.107 248.901,232.879 244.652,228.928 239.024,230.344 
				235.892,225.459 230.088,225.431 228.269,219.921 222.655,218.45 222.263,212.66 217.191,209.841 218.251,204.136 
				214.04,200.143 216.486,194.881 213.399,189.966 217.077,185.477 215.311,179.949 219.989,176.516 219.652,170.723 
				225.037,168.56 226.152,162.865 231.906,162.109 234.402,156.871 240.163,157.571 243.883,153.117 249.289,155.227 			"/>
			<g>
				<path fill="#F9A472" d="M252.738,153.999c1.564,1.125,3.426,3.121,5.309,3.639c1.982,0.545,4.948-1.413,6.734-2.109
					c-0.811-0.214-1.621-0.429-2.432-0.643c1.239,1.485,2.537,3.855,4.227,4.845c1.767,1.035,5.13-0.129,7.021-0.359
					c-0.719-0.413-1.438-0.826-2.158-1.238c0.828,1.738,1.629,5.102,3.393,6.135c1.798,1.053,4.997,0.832,7.016,1.097
					c-0.804-0.612-1.607-1.224-2.41-1.835c0.37,1.893,0.311,5.351,1.758,6.797c1.473,1.473,4.602,2.048,6.488,2.806
					c-0.612-0.804-1.225-1.607-1.836-2.411c-0.112,1.93-1.031,5.286,0.005,7.055c1.052,1.796,3.938,3.129,5.575,4.331
					c-0.383-0.941-0.766-1.882-1.148-2.823c-0.592,1.852-2.313,4.872-1.768,6.856c0.551,2.002,3.039,4.028,4.321,5.592
					c-0.13-1.01-0.261-2.02-0.392-3.029c-1.035,1.65-3.428,4.121-3.428,6.177c0,2.076,1.938,4.695,2.787,6.523
					c0.131-1.01,0.262-2.02,0.392-3.029c-1.415,1.342-4.31,3.119-4.854,5.096c-0.55,2.001,0.693,5.061,1.061,7.035
					c0.383-0.941,0.766-1.883,1.148-2.824c-1.71,0.951-4.932,1.945-5.969,3.717c-1.045,1.784-0.599,5.059-0.733,7.052
					c0.612-0.804,1.224-1.607,1.835-2.411c-1.895,0.497-5.264,0.661-6.717,2.114c-1.461,1.461-1.837,4.72-2.462,6.612
					c0.804-0.611,1.606-1.224,2.411-1.835c-1.964,0.01-5.291-0.67-7.065,0.37c-1.782,1.043-2.954,4.104-4.03,5.781
					c0.941-0.383,1.883-0.766,2.824-1.149c-1.915-0.481-4.967-1.963-6.957-1.416c-1.988,0.547-3.9,3.243-5.353,4.595
					c1.01-0.131,2.02-0.261,3.029-0.391c-1.739-0.946-4.296-3.113-6.36-3.113s-4.621,2.167-6.36,3.113
					c1.01,0.13,2.02,0.26,3.029,0.391c-1.453-1.352-3.364-4.048-5.352-4.595c-1.991-0.547-5.043,0.935-6.957,1.416
					c0.941,0.384,1.882,0.767,2.823,1.149c-1.075-1.677-2.248-4.738-4.03-5.781c-1.775-1.04-5.102-0.36-7.065-0.37
					c0.804,0.611,1.607,1.224,2.411,1.835c-0.625-1.893-1.002-5.151-2.463-6.612c-1.452-1.453-4.821-1.617-6.716-2.114
					c0.612,0.804,1.224,1.607,1.835,2.411c-0.135-1.993,0.312-5.268-0.733-7.052c-1.038-1.771-4.259-2.766-5.969-3.717
					c0.383,0.941,0.766,1.883,1.149,2.824c0.367-1.975,1.61-5.034,1.06-7.035c-0.544-1.977-3.438-3.754-4.854-5.096
					c0.13,1.01,0.261,2.02,0.391,3.029c0.85-1.828,2.787-4.447,2.787-6.523c0-2.056-2.392-4.527-3.428-6.177
					c-0.13,1.01-0.261,2.02-0.391,3.029c1.282-1.564,3.77-3.59,4.321-5.592c0.546-1.985-1.175-5.005-1.767-6.856
					c-0.383,0.941-0.766,1.882-1.149,2.823c1.636-1.201,4.523-2.535,5.575-4.331c1.037-1.769,0.117-5.125,0.005-7.055
					c-0.612,0.804-1.224,1.607-1.835,2.411c1.886-0.758,5.016-1.333,6.488-2.806c1.447-1.447,1.388-4.905,1.758-6.797
					c-0.804,0.612-1.607,1.224-2.411,1.835c2.019-0.265,5.218-0.044,7.015-1.097c1.765-1.034,2.565-4.397,3.393-6.135
					c-0.72,0.413-1.439,0.826-2.159,1.238c1.89,0.229,4.56,1.124,6.425,0.611c1.971-0.542,3.593-3.624,4.824-5.097
					c-0.811,0.214-1.622,0.429-2.432,0.643c1.789,0.698,4.122,2.199,6.07,2.199c2.052,0,4.414-2.607,5.973-3.728
					c2.592-1.864,0.1-6.204-2.523-4.317c-1.517,1.09-3.033,2.18-4.549,3.271c1.724,0.031,2.084-0.103,1.083-0.402
					c-0.524-0.205-1.048-0.409-1.572-0.614c-1.05-0.41-2.101-0.82-3.151-1.229c-0.753-0.294-1.917,0.026-2.432,0.643
					c-1.198,1.434-2.396,2.867-3.593,4.301c1.643-0.408,1.948-0.631,0.913-0.668c-0.559-0.068-1.117-0.136-1.675-0.204
					c-1.12-0.136-2.239-0.272-3.358-0.408c-0.792-0.096-1.822,0.532-2.159,1.238c-0.832,1.746-1.664,3.492-2.496,5.238
					c0.72-0.413,1.439-0.826,2.159-1.238c-1.918,0.252-3.835,0.504-5.753,0.756c-1.055,0.139-2.179,0.654-2.411,1.835
					c-0.372,1.898-0.744,3.796-1.115,5.694c0.582-0.582,1.164-1.164,1.746-1.746c-1.795,0.721-3.59,1.442-5.385,2.163
					c-1.001,0.402-1.905,1.217-1.835,2.411c0.112,1.931,0.224,3.862,0.336,5.793c0.413-0.72,0.826-1.439,1.238-2.159
					c-1.56,1.145-3.119,2.289-4.678,3.434c-0.887,0.651-1.515,1.679-1.149,2.823c0.589,1.842,1.178,3.685,1.767,5.527
					c0.214-0.811,0.429-1.622,0.643-2.432c-1.226,1.496-2.452,2.993-3.678,4.489c-0.704,0.858-1.03,2.012-0.391,3.029
					c1.029,1.639,2.058,3.277,3.086,4.915c0-0.841,0-1.682,0-2.523c-0.815,1.754-1.63,3.508-2.446,5.262
					c-0.47,1.011-0.478,2.206,0.391,3.029c1.403,1.331,2.807,2.662,4.211,3.993c-0.214-0.811-0.429-1.621-0.643-2.433
					c-0.353,1.902-0.707,3.804-1.06,5.705c-0.204,1.097,0.111,2.247,1.149,2.824c1.69,0.939,3.381,1.879,5.072,2.818
					c-0.413-0.719-0.826-1.438-1.238-2.158c0.131,1.93,0.261,3.86,0.392,5.79c0.075,1.109,0.707,2.115,1.835,2.411
					c1.871,0.49,3.742,0.98,5.613,1.471c-0.582-0.582-1.164-1.164-1.746-1.746c0.606,1.836,1.213,3.673,1.82,5.51
					c0.353,1.067,1.255,1.829,2.411,1.835c1.935,0.01,3.869,0.019,5.803,0.028c-0.72-0.413-1.439-0.825-2.159-1.238
					c1.044,1.628,2.088,3.257,3.133,4.885c0.619,0.965,1.698,1.433,2.823,1.149c1.876-0.473,3.752-0.944,5.628-1.416
					c-0.811-0.215-1.622-0.429-2.432-0.644c1.416,1.317,2.833,2.635,4.249,3.951c0.846,0.787,2.01,0.945,3.029,0.391
					c1.7-0.924,3.399-1.848,5.099-2.771c-0.842,0-1.682,0-2.523,0c1.699,0.924,3.398,1.848,5.099,2.771
					c1.02,0.555,2.183,0.396,3.029-0.391c1.417-1.316,2.833-2.634,4.249-3.951c-0.811,0.215-1.621,0.429-2.432,0.644
					c1.875,0.472,3.752,0.943,5.627,1.416c1.126,0.283,2.205-0.185,2.824-1.149c1.044-1.628,2.088-3.257,3.133-4.885
					c-0.721,0.413-1.439,0.825-2.159,1.238c1.935-0.01,3.868-0.019,5.804-0.028c1.155-0.006,2.058-0.768,2.41-1.835
					c0.606-1.837,1.213-3.674,1.819-5.51c-0.582,0.582-1.164,1.164-1.746,1.746c1.871-0.49,3.743-0.98,5.614-1.471
					c1.129-0.296,1.76-1.302,1.835-2.411c0.131-1.93,0.261-3.86,0.392-5.79c-0.412,0.72-0.825,1.439-1.238,2.158
					c1.691-0.939,3.382-1.879,5.072-2.818c1.037-0.577,1.353-1.728,1.148-2.824c-0.353-1.901-0.706-3.803-1.059-5.705
					c-0.215,0.812-0.43,1.622-0.644,2.433c1.403-1.331,2.808-2.662,4.211-3.993c0.868-0.823,0.86-2.019,0.392-3.029
					c-0.816-1.754-1.631-3.508-2.446-5.262c0,0.841,0,1.682,0,2.523c1.028-1.638,2.058-3.276,3.087-4.915
					c0.639-1.018,0.313-2.171-0.392-3.029c-1.226-1.497-2.452-2.993-3.678-4.489c0.214,0.811,0.429,1.622,0.644,2.432
					c0.588-1.842,1.178-3.685,1.766-5.527c0.366-1.145-0.262-2.172-1.148-2.823c-1.56-1.145-3.119-2.289-4.678-3.434
					c0.412,0.72,0.825,1.439,1.238,2.159c0.111-1.931,0.224-3.862,0.336-5.793c0.069-1.193-0.834-2.009-1.836-2.411
					c-1.795-0.721-3.59-1.442-5.385-2.163c0.582,0.582,1.164,1.164,1.746,1.746c-0.371-1.898-0.743-3.796-1.115-5.694
					c-0.23-1.182-1.355-1.697-2.41-1.835c-1.918-0.252-3.836-0.504-5.754-0.756c0.721,0.413,1.439,0.826,2.159,1.238
					c-0.832-1.746-1.664-3.492-2.496-5.238c-0.337-0.707-1.367-1.334-2.159-1.238c-1.854,0.226-3.709,0.451-5.563,0.676
					c1.46,0.871,1.826,0.936,1.101,0.194c-0.36-0.432-0.722-0.863-1.082-1.295c-0.724-0.866-1.446-1.731-2.169-2.597
					c-0.516-0.617-1.68-0.937-2.433-0.643c-1.74,0.679-3.48,1.358-5.22,2.037c1.66,0.472,2.042,0.438,1.146-0.103
					c-0.457-0.329-0.914-0.657-1.371-0.985c-0.915-0.658-1.83-1.316-2.746-1.975C252.639,147.795,250.146,152.135,252.738,153.999z"
					/>
			</g>
		</g>
		<path fill="#F5875E" d="M269.77,174.75c-3.27,10.75-7.012,19.5-15.66,19.5c-8.648,0-10.609-8.75-15.659-19.5
			c-4.579-9.748,7.011-19.5,15.659-19.5C262.758,155.25,272.902,164.446,269.77,174.75z"/>
		<path fill="#F5875E" d="M235.349,177.712c10.588,3.759,19.158,7.898,18.76,16.538c-0.396,8.639-9.227,10.197-20.198,14.747
			c-9.948,4.127-19.158-7.897-18.761-16.537S225.2,174.109,235.349,177.712z"/>
		<path fill="#F5875E" d="M237.852,213.254c3.601-10.643,7.613-19.272,16.257-19.004c8.645,0.269,10.334,9.075,15.046,19.977
			c4.274,9.886-7.612,19.273-16.257,19.005S234.401,223.455,237.852,213.254z"/>
		<path fill="#F5875E" d="M273.932,209.501c-10.815-3.044-19.642-6.604-19.822-15.25c-0.18-8.646,8.527-10.79,19.17-16.062
			c9.65-4.78,19.643,6.604,19.822,15.25S284.297,212.419,273.932,209.501z"/>
	</g>
	<g>
		<circle fill="#F36D47" cx="400" cy="267" r="48"/>
		<g>
			<polygon fill="#F9A472" points="400,226.84 404.711,230.227 410.117,228.117 413.838,232.571 419.598,231.871 422.094,237.109 
				427.848,237.865 428.963,243.56 434.348,245.723 434.012,251.516 438.689,254.949 436.923,260.477 440.601,264.966 
				437.514,269.881 439.96,275.143 435.749,279.136 436.809,284.841 431.736,287.66 431.345,293.45 425.73,294.921 423.912,300.431 
				418.108,300.459 414.976,305.344 409.348,303.928 405.099,307.879 400,305.107 394.901,307.879 390.652,303.928 385.024,305.344 
				381.892,300.459 376.088,300.431 374.269,294.921 368.655,293.45 368.264,287.66 363.191,284.841 364.251,279.136 
				360.04,275.143 362.486,269.881 359.399,264.966 363.077,260.477 361.311,254.949 365.988,251.516 365.652,245.723 
				371.037,243.56 372.152,237.865 377.906,237.109 380.402,231.871 386.162,232.571 389.883,228.117 395.289,230.227 			"/>
			<g>
				<path fill="#F9A472" d="M398.738,228.999c1.564,1.125,3.426,3.121,5.309,3.639c1.982,0.545,4.948-1.413,6.734-2.109
					c-0.811-0.214-1.621-0.429-2.432-0.643c1.239,1.485,2.537,3.855,4.227,4.845c1.767,1.035,5.13-0.129,7.021-0.359
					c-0.719-0.413-1.438-0.826-2.158-1.238c0.828,1.738,1.629,5.102,3.393,6.135c1.798,1.053,4.997,0.832,7.016,1.097
					c-0.804-0.612-1.607-1.224-2.41-1.835c0.37,1.893,0.311,5.351,1.758,6.797c1.473,1.473,4.602,2.048,6.488,2.806
					c-0.612-0.804-1.225-1.607-1.836-2.411c-0.112,1.93-1.031,5.285,0.005,7.055c1.052,1.796,3.938,3.129,5.575,4.33
					c-0.383-0.94-0.766-1.882-1.148-2.822c-0.592,1.852-2.313,4.871-1.768,6.855c0.551,2.003,3.039,4.029,4.321,5.593
					c-0.13-1.01-0.261-2.02-0.392-3.029c-1.035,1.649-3.428,4.12-3.428,6.177c0,2.076,1.938,4.695,2.787,6.523
					c0.131-1.01,0.262-2.02,0.392-3.029c-1.415,1.342-4.31,3.119-4.854,5.096c-0.55,2.001,0.693,5.061,1.061,7.035
					c0.383-0.941,0.766-1.883,1.148-2.824c-1.71,0.951-4.932,1.945-5.969,3.717c-1.045,1.784-0.599,5.059-0.733,7.052
					c0.612-0.804,1.224-1.607,1.835-2.411c-1.895,0.497-5.264,0.661-6.717,2.114c-1.461,1.461-1.837,4.72-2.462,6.612
					c0.804-0.611,1.606-1.224,2.411-1.835c-1.964,0.01-5.291-0.67-7.065,0.37c-1.782,1.043-2.954,4.104-4.03,5.781
					c0.941-0.383,1.883-0.766,2.824-1.149c-1.915-0.481-4.967-1.963-6.957-1.416c-1.988,0.547-3.9,3.243-5.353,4.595
					c1.01-0.131,2.02-0.261,3.029-0.391c-1.739-0.946-4.296-3.113-6.36-3.113s-4.621,2.167-6.36,3.113
					c1.01,0.13,2.02,0.26,3.029,0.391c-1.452-1.352-3.364-4.048-5.353-4.595c-1.99-0.547-5.043,0.935-6.957,1.416
					c0.941,0.384,1.883,0.767,2.824,1.149c-1.076-1.677-2.248-4.738-4.03-5.781c-1.774-1.04-5.102-0.36-7.065-0.37
					c0.805,0.611,1.607,1.224,2.411,1.835c-0.626-1.893-1.002-5.151-2.463-6.612c-1.452-1.453-4.821-1.617-6.716-2.114
					c0.611,0.804,1.223,1.607,1.835,2.411c-0.135-1.993,0.312-5.268-0.733-7.052c-1.037-1.771-4.259-2.766-5.969-3.717
					c0.383,0.941,0.766,1.883,1.148,2.824c0.367-1.975,1.61-5.034,1.061-7.035c-0.545-1.977-3.439-3.754-4.854-5.096
					c0.13,1.01,0.261,2.02,0.392,3.029c0.85-1.828,2.787-4.447,2.787-6.523c0-2.057-2.393-4.527-3.428-6.177
					c-0.131,1.01-0.262,2.02-0.392,3.029c1.282-1.563,3.771-3.59,4.321-5.593c0.545-1.984-1.176-5.004-1.768-6.855
					c-0.383,0.94-0.766,1.882-1.148,2.822c1.637-1.201,4.523-2.534,5.575-4.33c1.036-1.77,0.117-5.125,0.005-7.055
					c-0.611,0.804-1.224,1.607-1.836,2.411c1.887-0.758,5.016-1.333,6.488-2.806c1.447-1.447,1.388-4.905,1.758-6.797
					c-0.803,0.612-1.606,1.224-2.41,1.835c2.019-0.265,5.218-0.044,7.016-1.097c1.764-1.034,2.564-4.397,3.393-6.135
					c-0.72,0.413-1.439,0.826-2.158,1.238c1.889,0.229,4.56,1.124,6.425,0.611c1.971-0.542,3.593-3.624,4.823-5.097
					c-0.811,0.214-1.621,0.429-2.432,0.643c1.789,0.698,4.121,2.199,6.07,2.199c2.052,0,4.414-2.607,5.973-3.728
					c2.592-1.864,0.1-6.204-2.523-4.317c-1.517,1.09-3.033,2.18-4.549,3.271c1.723,0.031,2.084-0.103,1.082-0.402
					c-0.523-0.205-1.048-0.409-1.572-0.614c-1.051-0.41-2.101-0.82-3.151-1.229c-0.753-0.294-1.917,0.026-2.433,0.643
					c-1.197,1.434-2.395,2.867-3.593,4.301c1.644-0.408,1.948-0.631,0.913-0.668c-0.559-0.068-1.117-0.136-1.676-0.204
					c-1.119-0.136-2.238-0.272-3.357-0.408c-0.792-0.096-1.822,0.532-2.159,1.238c-0.832,1.746-1.664,3.492-2.496,5.238
					c0.72-0.413,1.438-0.826,2.159-1.238c-1.918,0.252-3.836,0.504-5.754,0.756c-1.055,0.139-2.18,0.654-2.41,1.835
					c-0.372,1.898-0.744,3.796-1.115,5.694c0.582-0.582,1.164-1.164,1.746-1.746c-1.795,0.721-3.59,1.442-5.385,2.163
					c-1.002,0.402-1.905,1.217-1.836,2.411c0.112,1.931,0.225,3.862,0.336,5.793c0.413-0.72,0.826-1.439,1.238-2.159
					c-1.559,1.145-3.118,2.29-4.678,3.434c-0.887,0.65-1.515,1.678-1.148,2.822c0.588,1.843,1.178,3.686,1.766,5.527
					c0.215-0.811,0.43-1.621,0.644-2.432c-1.226,1.496-2.452,2.992-3.678,4.489c-0.704,0.858-1.03,2.012-0.392,3.029
					c1.029,1.639,2.059,3.276,3.087,4.915c0-0.842,0-1.682,0-2.523c-0.815,1.754-1.63,3.508-2.446,5.262
					c-0.469,1.011-0.477,2.206,0.392,3.029c1.403,1.331,2.808,2.662,4.211,3.993c-0.214-0.811-0.429-1.621-0.644-2.433
					c-0.353,1.902-0.706,3.804-1.059,5.705c-0.204,1.097,0.111,2.247,1.148,2.824c1.69,0.939,3.381,1.879,5.072,2.818
					c-0.413-0.719-0.826-1.438-1.238-2.158c0.131,1.93,0.261,3.86,0.392,5.79c0.075,1.109,0.706,2.115,1.835,2.411
					c1.871,0.49,3.742,0.98,5.613,1.471c-0.582-0.582-1.164-1.164-1.746-1.746c0.607,1.836,1.214,3.673,1.82,5.51
					c0.353,1.067,1.255,1.829,2.41,1.835c1.936,0.01,3.869,0.019,5.804,0.028c-0.72-0.413-1.438-0.825-2.159-1.238
					c1.045,1.628,2.089,3.257,3.133,4.885c0.619,0.965,1.698,1.433,2.824,1.149c1.875-0.473,3.752-0.944,5.627-1.416
					c-0.811-0.215-1.621-0.429-2.432-0.644c1.416,1.317,2.832,2.635,4.249,3.951c0.847,0.787,2.01,0.945,3.029,0.391
					c1.7-0.924,3.399-1.848,5.099-2.771c-0.842,0-1.682,0-2.523,0c1.699,0.924,3.398,1.848,5.099,2.771
					c1.02,0.555,2.183,0.396,3.029-0.391c1.417-1.316,2.833-2.634,4.249-3.951c-0.811,0.215-1.621,0.429-2.432,0.644
					c1.875,0.472,3.752,0.943,5.627,1.416c1.126,0.283,2.205-0.185,2.824-1.149c1.044-1.628,2.088-3.257,3.133-4.885
					c-0.721,0.413-1.439,0.825-2.159,1.238c1.935-0.01,3.868-0.019,5.804-0.028c1.155-0.006,2.058-0.768,2.41-1.835
					c0.606-1.837,1.213-3.674,1.819-5.51c-0.582,0.582-1.164,1.164-1.746,1.746c1.871-0.49,3.743-0.98,5.614-1.471
					c1.129-0.296,1.76-1.302,1.835-2.411c0.131-1.93,0.261-3.86,0.392-5.79c-0.412,0.72-0.825,1.439-1.238,2.158
					c1.691-0.939,3.382-1.879,5.072-2.818c1.037-0.577,1.353-1.728,1.148-2.824c-0.353-1.901-0.706-3.803-1.059-5.705
					c-0.215,0.812-0.43,1.622-0.644,2.433c1.403-1.331,2.808-2.662,4.211-3.993c0.868-0.823,0.86-2.019,0.392-3.029
					c-0.816-1.754-1.631-3.508-2.446-5.262c0,0.842,0,1.682,0,2.523c1.028-1.639,2.058-3.276,3.087-4.915
					c0.639-1.018,0.313-2.171-0.392-3.029c-1.226-1.497-2.452-2.993-3.678-4.489c0.214,0.811,0.429,1.621,0.644,2.432
					c0.588-1.842,1.178-3.685,1.766-5.527c0.366-1.145-0.262-2.172-1.148-2.822c-1.56-1.145-3.119-2.29-4.678-3.434
					c0.412,0.72,0.825,1.439,1.238,2.159c0.111-1.931,0.224-3.862,0.336-5.793c0.069-1.193-0.834-2.009-1.836-2.411
					c-1.795-0.721-3.59-1.442-5.385-2.163c0.582,0.582,1.164,1.164,1.746,1.746c-0.371-1.898-0.743-3.796-1.115-5.694
					c-0.23-1.182-1.355-1.697-2.41-1.835c-1.918-0.252-3.836-0.504-5.754-0.756c0.721,0.413,1.439,0.826,2.159,1.238
					c-0.832-1.746-1.664-3.492-2.496-5.238c-0.337-0.707-1.367-1.334-2.159-1.238c-1.854,0.226-3.709,0.451-5.563,0.676
					c1.46,0.871,1.826,0.936,1.101,0.194c-0.36-0.432-0.722-0.863-1.082-1.295c-0.724-0.866-1.446-1.731-2.169-2.597
					c-0.516-0.617-1.68-0.937-2.433-0.643c-1.74,0.679-3.48,1.358-5.22,2.037c1.66,0.472,2.042,0.438,1.146-0.103
					c-0.457-0.329-0.914-0.657-1.371-0.985c-0.915-0.658-1.83-1.316-2.746-1.975C398.639,222.795,396.146,227.135,398.738,228.999z"
					/>
			</g>
		</g>
		<path fill="#F5875E" d="M415.77,249.75c-3.27,10.75-7.012,19.5-15.66,19.5s-10.609-8.75-15.658-19.5
			c-4.579-9.748,7.01-19.5,15.658-19.5S418.902,239.446,415.77,249.75z"/>
		<path fill="#F5875E" d="M381.35,252.712c10.588,3.759,19.157,7.898,18.76,16.538c-0.396,8.639-9.227,10.197-20.197,14.747
			c-9.948,4.127-19.158-7.897-18.762-16.537C361.548,258.82,371.2,249.109,381.35,252.712z"/>
		<path fill="#F5875E" d="M383.852,288.254c3.602-10.643,7.613-19.272,16.258-19.004s10.334,9.075,15.046,19.977
			c4.274,9.886-7.612,19.273-16.257,19.005S380.4,298.455,383.852,288.254z"/>
		<path fill="#F5875E" d="M419.932,284.501c-10.815-3.044-19.642-6.604-19.822-15.25c-0.18-8.646,8.527-10.79,19.17-16.062
			c9.65-4.78,19.643,6.604,19.822,15.25S430.297,287.419,419.932,284.501z"/>
	</g>
</g>
<g id="Layer_2">
	<path fill="#2DB34A" stroke="#D3E5A3" stroke-width="5" stroke-miterlimit="10" d="M128.815,243.934
		c-0.071,0.114-0.125,0.236-0.194,0.352c-10.708-1.712-21.886,2.976-27.965,12.763c-0.192,0.309-0.37,0.622-0.548,0.936
		c-14.705-2.033-29.91,4.512-38.249,17.936c-8.337,13.422-7.465,29.955,0.875,42.235c-0.202,0.299-0.405,0.597-0.596,0.906
		c-6.077,9.781-5.328,21.873,0.942,30.711c-5.545,9.021-2.765,20.835,6.239,26.43c9.032,5.609,20.9,2.836,26.51-6.195
		c2.27-3.654,3.145-7.772,2.81-11.753c4.229-2.222,7.942-5.559,10.645-9.909c3.459-5.57,4.7-11.887,3.976-17.927
		c5.727-3.101,10.752-7.679,14.433-13.607c3.682-5.927,5.559-12.461,5.801-18.967c5.735-2.028,10.848-5.942,14.307-11.512
		c2.764-4.446,4.114-9.375,4.177-14.258c3.82-1.443,7.22-4.09,9.542-7.826c5.609-9.032,2.836-20.9-6.195-26.511
		C146.293,232.128,134.426,234.902,128.815,243.934z"/>
	<path fill="#2DB34A" stroke="#D3E5A3" stroke-width="5" stroke-miterlimit="10" d="M258.391,198.455
		c-0.135,0.022-0.262,0.061-0.395,0.085c-5.752-9.191-16.635-14.528-28.006-12.671c-0.358,0.059-0.712,0.13-1.065,0.202
		c-8.139-12.415-23.069-19.564-38.665-17.017c-15.595,2.547-27.475,14.076-31.241,28.436c-0.357,0.044-0.715,0.089-1.074,0.147
		c-11.365,1.856-19.981,10.373-22.516,20.908c-10.442,1.756-17.514,11.62-15.805,22.082c1.714,10.492,11.609,17.609,22.102,15.895
		c4.247-0.693,7.922-2.741,10.701-5.612c4.454,1.725,9.41,2.327,14.465,1.501c6.471-1.058,12.046-4.277,16.119-8.795
		c6.102,2.274,12.856,3.049,19.742,1.924s13.042-4.009,18.104-8.105c5.299,2.986,11.609,4.265,18.08,3.208
		c5.17-0.845,9.77-3.068,13.489-6.231c3.6,1.928,7.828,2.749,12.17,2.04c10.494-1.714,17.609-11.609,15.896-22.102
		C278.777,203.857,268.883,196.741,258.391,198.455z"/>
	<path fill="#2DB34A" stroke="#D3E5A3" stroke-width="5" stroke-miterlimit="10" d="M390.122,232.484
		c-0.128-0.048-0.257-0.079-0.384-0.124c-0.386-10.835-7.142-20.9-17.917-24.979c-0.339-0.128-0.681-0.243-1.022-0.357
		c-0.84-14.821-10.195-28.479-24.975-34.072c-14.778-5.592-30.832-1.549-41.273,9.002c-0.332-0.14-0.664-0.28-1.004-0.41
		c-10.771-4.076-22.491-1.009-29.954,6.847c-9.921-3.701-20.978,1.305-24.729,11.219c-3.763,9.943,1.247,21.055,11.191,24.817
		c4.023,1.523,8.23,1.588,12.073,0.491c2.994,3.721,6.985,6.721,11.775,8.534c6.133,2.32,12.57,2.32,18.357,0.444
		c4.146,5.021,9.607,9.069,16.134,11.539s13.3,3.051,19.73,2.034c3.096,5.235,7.921,9.499,14.053,11.819
		c4.899,1.854,9.995,2.229,14.798,1.35c2.153,3.47,5.404,6.295,9.519,7.853c9.945,3.764,21.055-1.247,24.818-11.19
		C405.075,247.357,400.065,236.247,390.122,232.484z"/>
	<path fill="#2DB34A" stroke="#D3E5A3" stroke-width="5" stroke-miterlimit="10" d="M444.01,359.508
		c-0.081-0.108-0.174-0.203-0.257-0.311c5.527-9.33,5.274-21.449-1.595-30.699c-0.218-0.291-0.443-0.572-0.668-0.854
		c7.295-12.929,6.793-29.477-2.626-42.162c-9.422-12.688-25.117-17.949-39.603-14.705c-0.204-0.298-0.409-0.596-0.625-0.887
		c-6.865-9.246-18.388-12.993-28.91-10.408c-6.352-8.472-18.362-10.228-26.872-3.908c-8.536,6.338-10.316,18.396-3.979,26.932
		c2.565,3.453,6.072,5.78,9.897,6.932c0.512,4.748,2.251,9.428,5.306,13.541c3.907,5.264,9.329,8.738,15.21,10.285
		c0.78,6.464,3.192,12.821,7.354,18.423c4.159,5.603,9.546,9.747,15.511,12.365c-0.223,6.077,1.537,12.271,5.446,17.534
		c3.123,4.206,7.21,7.272,11.727,9.125c-0.061,4.083,1.152,8.217,3.774,11.75c6.338,8.536,18.394,10.316,26.931,3.979
		C448.567,380.1,450.348,368.042,444.01,359.508z"/>
</g>
<g id="Layer_1">
	<g>
		<g>
			<path fill="#FFCD05" d="M358.834,217.334c-33.916-20.466-71.678-28.749-108-28.395v0.162
				c-35.634,0.001-72.545,8.353-105.767,28.4c-77.332,46.667-69.332,180.667-69.332,180.667l177.331-0.167v-0.165l175.1,0.166
				C428.166,398.002,436.166,264.002,358.834,217.334z"/>
		</g>
		<g>
			<path fill="none" stroke="#2F1010" stroke-width="5" stroke-miterlimit="10" d="M358.834,217.334
				c-33.916-20.466-71.678-28.749-108-28.395v0.162c-35.634,0.001-72.545,8.353-105.767,28.4
				c-77.332,46.667-69.332,180.667-69.332,180.667l177.331-0.167v-0.165l175.1,0.166
				C428.166,398.002,436.166,264.002,358.834,217.334z"/>
		</g>
	</g>
</g>
<g id="Layer_4">
	<ellipse fill="#2F1010" cx="176.333" cy="307" rx="16" ry="19.334"/>
	<ellipse fill="#2F1010" cx="324.334" cy="309" rx="16" ry="19.334"/>
	<g>
		<g>
			<path fill="#291F10" d="M217.159,343.762c6.104-10.363,20.051-14.444,31.19-14.905c8.926-0.369,18.431,1.576,25.425,7.412
				c1.692,1.411,3.179,3.078,4.405,4.905c0.341,0.509,1.56,2.97,1.243,2.158c1.156,2.971,5.993,1.68,4.822-1.33
				c-4.951-12.722-20.219-17.623-32.599-18.146c-13.826-0.583-31.306,4.649-38.805,17.382
				C211.201,344.022,215.524,346.537,217.159,343.762L217.159,343.762z"/>
		</g>
	</g>
</g>
</svg>
